<svg xmlns="http://www.w3.org/2000/svg" xmlns:xlink="http://www.w3.org/1999/xlink" version="1.1" x="0px" y="0px" viewBox="0 0 100 125" style="enable-background:new 0 0 100 100;" xml:space="preserve"><g><path d="M28.8515015,51.0253296c0.2402344,0.4208984,0.7514648,0.6088867,1.2050781,0.4453125   c0,0,12.1152344-4.3383789,17.9995117-6.46875c0.0717773,3.2421875-1.7919922,5.8598633-5.777832,8.1625977   c-4.5,2.6000977-6.1772461,7.715332-6.1772461,10.3291016v3.6904297c0,0.5522461,0.4477539,1,1,1h31.0390625   c0.3671875,0,0.7045898-0.2011719,0.8793945-0.5239258c0.1748047-0.3222656,0.1586914-0.7148438-0.0419922-1.0224609   l-2.3955078-3.6733398l2.2651367-2.2651367c0.1928711-0.1928711,0.2988281-0.456543,0.2924805-0.7294922   c-0.0058594-0.2729492-0.1230469-0.53125-0.324707-0.715332l-2.4921875-2.2788086l2.4804688-2.1967773   c0.2026367-0.1791992,0.3237305-0.4331055,0.3359375-0.7036133s-0.0859375-0.5341797-0.2714844-0.730957l-2.3730469-2.5166016   l2.2646484-1.7841797c0.222168-0.175293,0.3598633-0.4365234,0.378418-0.71875   c0.019043-0.2822266-0.0825195-0.5595703-0.2792969-0.7626953l-2.2890625-2.362793l2.3193359-2.6186523   c0.3608398-0.4072266,0.3295898-1.027832-0.0693359-1.3969727l-3.0957031-2.8632813l2.3398438-2.8676758   c0.1987305-0.2441406,0.2714844-0.5668945,0.1958008-0.8720703c-0.0751953-0.3056641-0.2900391-0.5576172-0.5795898-0.6806641   l-3.0029297-1.2763672l0.8388672-3.4331055c0.0742188-0.3017578,0.003418-0.6206055-0.1914063-0.8632813   c-0.1938477-0.2421875-0.472168-0.3652344-0.8012695-0.3740234l-3.9321289,0.0839844l-3.2885742-4.4130859   c-0.2973633-0.4003906-0.8452148-0.519043-1.2836914-0.2788086l-3.2607422,1.793457l-6.5014648-4.2163086   c-0.3081055-0.1992188-0.6992188-0.2148438-1.0214844-0.0400391c-0.3217773,0.175293-0.5224609,0.512207-0.5224609,0.8789063   v5.2988281c-2.2333984,1.8271484-13.9589844,11.4155273-16.0708008,13.0205078   c-2.5307617,1.9238281-3.4990234,3.6855469-2.878418,5.2363281C26.156189,46.2992554,28.5765991,50.5443726,28.8515015,51.0253296z    M29.8515015,41.6727905c2.3530273-1.7885742,15.9179688-12.8935547,16.4941406-13.3652344   c0.2324219-0.1899414,0.3666992-0.4741211,0.3666992-0.7739258v-3.9321289l5.4589844,3.5405273   c0.3085938,0.199707,0.7026367,0.2143555,1.0258789,0.0375977l3.0219727-1.6621094l3.0756836,4.1279297   c0.1928711,0.2587891,0.4624023,0.3974609,0.8232422,0.4023438l3.1455078-0.0673828l-0.7314453,2.9936523   c-0.1166992,0.4755859,0.1289063,0.9658203,0.5800781,1.1577148l2.5600586,1.0878906l-2.0922852,2.5644531   c-0.3339844,0.409668-0.2919922,1.0078125,0.0957031,1.3666992l3.0668945,2.8364258l-2.284668,2.5795898   c-0.3466797,0.3916016-0.3334961,0.9833984,0.0302734,1.3588867l2.1625977,2.2324219l-2.2524414,1.7744141   c-0.2202148,0.1738281-0.3574219,0.4321289-0.3779297,0.7119141c-0.0209961,0.2797852,0.0771484,0.5556641,0.2695313,0.7597656   l2.4150391,2.5615234L64.164978,56.215271c-0.2124023,0.1879883-0.3344727,0.4570313-0.3369141,0.7407227   c-0.0024414,0.2832031,0.1162109,0.5546875,0.3251953,0.7456055l2.5400391,2.3227539l-2.0991211,2.0996094   c-0.3344727,0.3344727-0.3886719,0.8574219-0.1303711,1.253418l1.8300781,2.8066406H38.1010132v-2.6904297   c0-1.8291016,1.265625-6.3369141,5.1782227-8.5976563c4.9578857-2.8644409,7.1592407-6.3873291,6.7219849-10.748291   L58.5,39.1166992l-9.979248,3.5889282c-4.4987183,1.6356812-15.3303223,5.5181274-18.3474731,6.598999   c-1.0253906-1.8115234-2.3261719-4.1635742-2.5532227-4.7304688   C27.4413452,44.1273804,27.9335327,43.1307983,29.8515015,41.6727905z"/><path d="M33.5131226,70.9867554c0,0.5522461,0.4477539,1,1,1h35.9077148c0.5522461,0,1-0.4477539,1-1s-0.4477539-1-1-1H34.5131226   C33.9608765,69.9867554,33.5131226,70.4345093,33.5131226,70.9867554z"/><path d="M31.7225952,74.6127319c0,0.5522461,0.4477539,1,1,1h39.4887695c0.5522461,0,1-0.4477539,1-1s-0.4477539-1-1-1H32.7225952   C32.1703491,73.6127319,31.7225952,74.0604858,31.7225952,74.6127319z"/><path d="M30.5150757,78.2387085c0,0.5522461,0.4477539,1,1,1h41.9038086c0.5522461,0,1-0.4477539,1-1s-0.4477539-1-1-1H31.5150757   C30.9628296,77.2387085,30.5150757,77.6864624,30.5150757,78.2387085z"/></g><text x="0" y="115" fill="#000000" font-size="5px" font-weight="bold" font-family="'Helvetica Neue', Helvetica, Arial-Unicode, Arial, Sans-serif">Created by Alone forever</text><text x="0" y="120" fill="#000000" font-size="5px" font-weight="bold" font-family="'Helvetica Neue', Helvetica, Arial-Unicode, Arial, Sans-serif">from the Noun Project</text></svg>